# xmcd
#
# Track frame offsets:
#	150
#	12106
#	24676
#	34207
#	48151
#	59965
#	73622
#	83513
#	96057
#	106499
#	120304
#	130803
#	141093
#	153745
#	165764
#	177637
#	188847
#	201711
#	216283
#
# Disc length: 3106 seconds
#
# Revision: 4
# Processed by: cddbd v1.5.2PL0 Copyright (c) Steve Scherf et al.
# Submitted via: EasyCDDAExtractor 9.0.0.1
#
DISCID=100c2013
DTITLE=Freddy Fender - Uforglemmelige Klassikere
DYEAR=2006
DGENRE=Country
TTITLE0=Before The Nextteardrop Falls
TTITLE1=Wasted Days And Wasted Nights
TTITLE2=Your Cheatin' Heart
TTITLE3=These Arms Of Mine
TTITLE4=She's About A Mover
TTITLE5=Baby I Want To Love You
TTITLE6=High School Dance
TTITLE7=Talk To Me
TTITLE8=Let The Good Times Roll
TTITLE9=In The Still Of The Night
TTITLE10=A Man Can Cry
TTITLE11=Crazy Baby
TTITLE12=Enter My Heart
TTITLE13=I'm Leaving It All Up To You
TTITLE14=Sweet Summer Day
TTITLE15=Mathilda
TTITLE16=Silver Wings
TTITLE17=Since I Met You Baby
TTITLE18=Wild Side Of Life (Live)
EXTD=
EXTT0=
EXTT1=
EXTT2=
EXTT3=
EXTT4=
EXTT5=
EXTT6=
EXTT7=
EXTT8=
EXTT9=
EXTT10=
EXTT11=
EXTT12=
EXTT13=
EXTT14=
EXTT15=
EXTT16=
EXTT17=
EXTT18=
PLAYORDER=
